<?xml version="1.0"?>
<svg width="612" height="260" xmlns="http://www.w3.org/2000/svg" xmlns:svg="http://www.w3.org/2000/svg">
 <defs>
  <clipPath id="clip-0">
   <path clip-rule="nonzero" d="m200,6l5,0l0,246.75l-5,0l0,-246.75zm0,0" id="svg_1"/>
  </clipPath>
 </defs>
 <g class="layer">
  <title>Layer 1</title>
  <path d="m18.99,79.3c1.68,18.04 21.63,23.57 36.77,24.29c19.22,0.73 39.65,-0.48 57.67,-6.73c13.7,-4.57 24.99,-12.75 33.88,-23.82c7.21,-9.14 14.18,-22.61 7.94,-34.16c-6.73,-12.27 -23.07,-15.88 -35.33,-11.79c-15.38,5.05 -23.55,21.65 -19.22,37.05c6.48,23.82 34.12,31.52 49.98,47.63c8.89,9.14 12.5,20.93 9.85,33.44c-4.08,21.9 -32.92,43.07 -52.39,23.82c-14.66,-14.67 -4.8,-34.64 9.86,-44.51c16.82,-11.06 38.69,-12.98 53.34,-27.18c12.5,-12.03 14.18,-31.52 -1.68,-41.38c-10.81,-6.73 -28.59,-8.42 -37.48,2.41c-5.77,7.21 -6.73,17.8 -7.45,26.46c-0.73,11.31 0.23,22.85 2.88,33.92c4.57,18.77 14.18,36.33 16.34,55.81c2.64,21.9 -8.65,42.83 -28.6,52.21c-6.72,3.12 -27.15,11.07 -26.67,-2.41c0.24,-11.06 12.25,-21.41 23.07,-21.17c14.42,0.24 22.83,16.12 32.92,24.3c8.17,6.74 21.87,10.35 30.28,1.68c4.09,-4.09 5.77,-10.1 1.92,-14.91c-0.96,-1.21 -5.28,-0.24 -4.56,0.72c2.64,3.13 2.64,6.73 0.72,10.34c-2.89,5.3 -8.41,7.7 -14.18,6.26c-6.73,-1.69 -12.02,-6.74 -16.58,-11.55c-7.93,-8.18 -15.62,-17.8 -27.88,-18.76c-12.73,-1.21 -27.63,7.69 -30.04,21.17c-2.64,15.63 17.79,11.54 26.2,8.66c16.58,-5.3 30.75,-17.08 36.52,-33.92c5.77,-17.32 0.24,-35.13 -5.52,-51.73c-6.73,-19.48 -12.98,-38.49 -11.78,-59.66c0.48,-9.62 1.44,-22.85 9.61,-29.35c9.14,-7.46 23.8,-2.89 31.48,4.81c7.21,7.46 7.46,18.05 2.89,26.95c-4.81,9.14 -14.18,15.16 -23.31,19.25c-16.1,7.45 -35.09,11.3 -47.1,25.5c-9.38,11.06 -10.09,27.66 1.2,37.76c11.05,9.87 28.6,8.91 41.09,1.93c13.22,-7.7 21.15,-22.37 20.67,-37.53c-0.24,-10.82 -5.77,-19.97 -13.7,-26.95c-16.34,-14.67 -45.66,-24.29 -48.3,-49.55c-2.41,-21.41 19.95,-40.66 39.65,-26.23c12.98,9.39 9.37,24.78 1.68,36.33c-8.89,13.23 -21.63,22.61 -36.77,27.43c-10.33,3.13 -20.9,4.57 -31.72,5.29c-11.53,0.72 -24.03,1.68 -35.08,-1.68c-9.37,-2.89 -17.54,-10.35 -18.51,-20.45c0,-1.69 -4.8,-1.21 -4.56,0zm0,0" fill="rgb(100%, 100%, 100%)" fill-rule="nonzero" id="svg_2"/>
  <g clip-path="url(#clip-0)" id="svg_3">
   <path d="m200.6,6l3.89,0l0,246.75l-3.89,0l0,-246.75zm0,0" fill="rgb(100%, 100%, 100%)" fill-rule="nonzero" id="svg_4"/>
  </g>
  <path d="m200.6,146.69l0,-93.61l17.71,0l0,93.61l-17.71,0zm77.31,-62.65l17.54,0l0,62.65l-16.62,0l-0.43,-7.56c-4.38,5.55 -11.32,8.78 -19.91,8.78c-15.03,0 -23.31,-7.86 -23.31,-21.7l0,-42.17l17.59,0l0,38.39c0,8.29 5.18,11.34 11.26,11.34c7.25,0 13.82,-3.66 13.88,-15.18l0,-34.55zm63.99,63.81c-19.67,0 -33.55,-13.1 -33.55,-32.55c0,-19.5 13.88,-32.48 33.55,-32.48c15.83,0 27.7,8.23 30.74,23.04l-16.19,1.77c-1.95,-7.5 -7.37,-10.98 -14.74,-10.98c-9.43,0 -15.82,7.44 -15.82,18.65c0,11.16 6.39,18.65 15.82,18.65c7.37,0 12.79,-3.53 14.74,-10.97l16.19,1.77c-3.04,14.81 -15.22,23.1 -30.74,23.1zm60.02,-53.88c3.17,-5.54 11.39,-10.67 20.46,-10.67l0,15.67c-13.27,0 -19.6,3.9 -19.6,17.19l0,30.53l-17.66,0l0,-62.65l16.81,0l0,9.93l-0.01,0zm72.21,-9.93l17.53,0l0,62.65l-16.62,0l-0.43,-7.56c-4.38,5.55 -11.32,8.78 -19.9,8.78c-15.04,0 -23.32,-7.86 -23.32,-21.7l0,-42.17l17.59,0l0,38.39c0,8.29 5.18,11.34 11.27,11.34c7.24,0 13.82,-3.66 13.88,-15.18l0,-34.55zm109.82,-1.22c13.4,0 22.04,6.83 22.04,19.69l0,44.18l-17.53,0l0,-39.19c0,-7.37 -4.63,-10.6 -9.86,-10.6c-6.27,0 -11.81,3.6 -11.81,14.44l0,35.35l-17.72,0l0,-39c0,-7.5 -4.5,-10.79 -10.04,-10.79c-6.09,0 -11.75,3.6 -11.75,15.36l0,34.43l-17.48,0l0,-62.65l17.48,0l0,7.37c4.14,-5.54 10.47,-8.59 18.14,-8.59c9.07,0 15.89,3.29 19.18,9.39c4.38,-6.28 11.08,-9.39 19.36,-9.39l-0.01,0zm0,0" fill="rgb(100%, 100%, 100%)" fill-rule="nonzero" id="svg_5"/>
  <path d="m204.19,194.95l0,12.09l-3.59,0l0,-26.64l18.41,0l0,3.19l-14.82,0l0,8.16l13.04,0l0,3.2l-13.04,0zm29,-14.55l0,26.64l-3.6,0l0,-26.64l3.6,0zm29.96,21.52l0,-21.52l3.48,0l0,26.64l-4.04,0l-13.52,-21.52l-0.07,0l0,21.52l-3.49,0l0,-26.64l4.26,0l13.31,21.52l0.07,0zm30.15,-2.63l-10.67,0l-2.78,7.75l-3.71,0l10,-26.64l4.08,0l9.64,26.64l-3.93,0l-2.63,-7.75zm-9.56,-3.2l8.26,0l-3.93,-11.72l-0.07,0l-4.26,11.72zm43.22,5.83l0,-21.52l3.49,0l0,26.64l-4.04,0l-13.53,-21.52l-0.07,0l0,21.52l-3.48,0l0,-26.64l4.26,0l13.3,21.52l0.07,0zm37.45,-13.5l-3.48,0c-1,-4.68 -4.89,-5.53 -7.45,-5.53c-4.82,0 -8.71,3.56 -8.71,10.57c0,6.27 2.23,11.09 8.82,11.09c2.34,0 6.37,-1.11 7.6,-7.3l3.48,0c-1.48,10.05 -9.63,10.49 -11.63,10.49c-6.04,0 -11.97,-3.93 -11.97,-14.17c0,-8.19 4.66,-13.87 12.41,-13.87c6.86,0 10.41,4.26 10.93,8.72zm30.78,15.43l0,3.19l-19.64,0l0,-26.64l19.38,0l0,3.19l-15.79,0l0,8.16l14.56,0l0,3.2l-14.56,0l0,8.9l16.05,0zm0,0" fill="rgb(100%, 100%, 100%)" fill-rule="nonzero" id="svg_6"/>
 </g>
</svg>